# xmcd CD database file
#
# Track frame offsets:
#	300
#	17422
#	35525
#	49047
#	67821
#	95865
#	113634
#	130001
#	148608
#	165732
#	182854
#	200333
#	218929
#	233530
#	257760
#	275245
#	290951
#	310125
#
# Disc length: 4335 seconds
#
# Revision: 1
# Processed by: cddbd v1.5.2PL0 Copyright (c) Steve Scherf et al.
# Submitted via: CDex 1.51
#
DISCID=0f10eb12
DTITLE=Various Artist - SF-331
DYEAR=1900
DGENRE=Blues
TTITLE0=Lady Gaga - Applause
TTITLE1=Katy Perry - Roar
TTITLE2=Artic Monkeys - Why'd You Only Call Me When Your High?
TTITLE3=Miley Cyrus - We Can't Stop
TTITLE4=Justin Timberlake - Take Back The Night
TTITLE5=Jessie J - It's My Party
TTITLE6=One Direction - Best Song Ever
TTITLE7=Ellie Goulding - Burn
TTITLE8=Passenger - Holes
TTITLE9=Gabrielle Aplin - Home
TTITLE10=Wanted The - We Own The Night
TTITLE11=Calvin harris Ft Ayah Marar - Thinking About you
TTITLE12=Jason Derulo Ft 2 Chains - Talk Dirty
TTITLE13=Mumford and Sons - Hopeless Wanderer
TTITLE14=Lana Del Rey and Cedric Gervais - Summertime Sadness
TTITLE15=Olly Murs - Right Place Right Time
TTITLE16=London Grammar - Strong
TTITLE17=David Bowie - Valentine's Day
EXTD=
EXTT0=
EXTT1=
EXTT2=
EXTT3=
EXTT4=
EXTT5=
EXTT6=
EXTT7=
EXTT8=
EXTT9=
EXTT10=
EXTT11=
EXTT12=
EXTT13=
EXTT14=
EXTT15=
EXTT16=
EXTT17=
PLAYORDER=
